<?xml version="1.0" encoding="UTF-8"?>
<svg version="1.1" xmlns="http://www.w3.org/2000/svg" width="500" height="500">
<path d="M0 0 C5.33154083 -0.62279946 8.32923564 0.77578746 12.58203125 3.9921875 C33.48779906 22.79275911 36.5343128 52.89204109 38.08203125 79.3671875 C39.92463578 115.89504301 30.58315799 151.3459501 8.08203125 180.3671875 C7.36273438 181.29917969 6.6434375 182.23117188 5.90234375 183.19140625 C2.66165913 187.25710032 -0.43128699 191.03475248 -4.4765625 194.31640625 C-11.31205178 200.04660089 -11.31205178 200.04660089 -14.23193359 208.17626953 C-14.03553026 215.39725073 -12.53247396 222.35136292 -10.91796875 229.3671875 C-10.52742705 231.27734303 -10.14287293 233.18873711 -9.765625 235.1015625 C-9.60199463 235.92366211 -9.43836426 236.74576172 -9.26977539 237.59277344 C-9.1536792 238.17833008 -9.03758301 238.76388672 -8.91796875 239.3671875 C-8.05816406 238.90828125 -7.19835937 238.449375 -6.3125 237.9765625 C13.70476462 227.50572995 35.0709893 223.81528389 57.10546875 230.0390625 C67.1472797 233.21530441 76.23879873 238.32545319 84.08203125 245.3671875 C84.8915625 246.08390625 85.70109375 246.800625 86.53515625 247.5390625 C100.43735241 260.58836319 108.69127267 277.69271116 112.08203125 296.3671875 C112.21351563 297.07101562 112.345 297.77484375 112.48046875 298.5 C115.62576948 318.81694258 110.71785828 341.68645929 99.12890625 358.7109375 C95.11319739 363.92216273 90.69720929 368.68473282 86.08203125 373.3671875 C85.42460937 374.0375 84.7671875 374.7078125 84.08984375 375.3984375 C68.54449866 390.07644574 43.03672954 399.39956889 22.08203125 401.3671875 C22.24022339 402.20189575 22.24022339 402.20189575 22.40161133 403.0534668 C33.45876376 461.73496869 33.45876376 461.73496869 20.84375 481.0546875 C12.53462958 491.96155954 3.60622005 498.07130399 -9.91796875 500.3671875 C-21.7098533 501.60436883 -32.2619393 498.59621213 -41.5234375 491.3203125 C-48.0384352 485.73877828 -54.40738615 479.48580855 -55.15625 470.51171875 C-55.34131658 462.20320315 -54.8817057 456.53780007 -49.046875 450.3984375 C-42.65962632 444.50623078 -37.59343251 442.87112948 -28.91796875 443.0625 C-22.42252189 443.72219382 -18.46266287 446.50588366 -14.04296875 451.1796875 C-9.60440852 456.65964114 -8.48696561 462.16726464 -8.6640625 469.09765625 C-9.33278433 475.07500059 -11.72479181 480.0542055 -15.91796875 484.3671875 C-19.11483788 486.69823791 -22.32530958 488.70903712 -25.91796875 490.3671875 C-18.36232058 492.88573689 -10.00958973 491.80870945 -2.91796875 488.3671875 C6.27282095 483.09599929 11.32272101 474.88483811 14.25732422 464.85620117 C17.36963612 451.68922385 15.57039686 439.26698778 13.20703125 426.1796875 C12.92023285 424.51265148 12.63506901 422.84533339 12.3515625 421.17773438 C11.33227143 415.22725322 10.29432284 409.28198563 9.08203125 403.3671875 C8.4492627 403.35260498 7.81649414 403.33802246 7.16455078 403.32299805 C-6.44455309 402.97470935 -19.5753453 402.10344805 -32.91796875 399.3671875 C-34.68720703 399.026875 -34.68720703 399.026875 -36.4921875 398.6796875 C-56.81594916 394.44657265 -79.85099442 382.78058209 -92.91796875 366.3671875 C-94.22794649 364.96898677 -95.54057784 363.5732688 -96.85546875 362.1796875 C-112.9346526 343.95453907 -120.0179909 318.84419993 -118.78662109 294.80273438 C-116.8670317 269.26425559 -105.48212034 246.65738689 -91.91796875 225.3671875 C-90.95942639 223.76314573 -90.00106005 222.15899873 -89.04296875 220.5546875 C-88.34171875 219.5028125 -87.64046875 218.4509375 -86.91796875 217.3671875 C-86.25796875 217.3671875 -85.59796875 217.3671875 -84.91796875 217.3671875 C-84.68239258 216.82481445 -84.44681641 216.28244141 -84.20410156 215.72363281 C-77.49087387 203.42369475 -65.05431722 193.31968535 -55.16796875 183.6171875 C-52.25048122 180.75343138 -49.34009706 177.88271151 -46.43359375 175.0078125 C-45.78239563 174.37321106 -45.13119751 173.73860962 -44.46026611 173.08477783 C-42.57033448 171.21483451 -40.73471736 169.3082277 -38.91796875 167.3671875 C-38.24838135 166.66571091 -37.57879395 165.96423431 -36.88891602 165.24150085 C-33.56693417 161.44998084 -31.46498511 158.68402542 -31.47460938 153.52856445 C-31.63479056 151.80006065 -31.83664014 150.07504422 -32.07421875 148.35546875 C-32.17053589 147.42478073 -32.26685303 146.49409271 -32.36608887 145.53520203 C-32.68015524 142.57795515 -33.04747444 139.63034092 -33.41796875 136.6796875 C-33.63776839 134.71980737 -33.85394513 132.75951736 -34.06640625 130.79882812 C-34.48128121 127.00357874 -34.90926682 123.21021398 -35.34863281 119.41772461 C-36.79069983 106.79526481 -37.13227152 94.24834634 -37.15820312 81.5559082 C-37.16789405 78.70168739 -37.19902184 75.8481933 -37.23046875 72.99414062 C-37.35016908 52.24388099 -35.94971935 26.40138045 -21.0390625 10.34375 C-14.66252569 4.42891938 -8.39644956 1.60746692 0 0 Z M-1.91796875 33.3671875 C-10.62209084 42.70096948 -13.76049915 54.97250322 -16.60546875 67.0546875 C-16.8080127 67.90192383 -17.01055664 68.74916016 -17.21923828 69.62207031 C-21.00866232 86.65709579 -21.18400192 103.62648079 -21.04296875 120.9921875 C-21.03290764 123.17447501 -21.02378739 125.35676706 -21.015625 127.5390625 C-20.99388553 132.81520567 -20.96066168 138.09117436 -20.91796875 143.3671875 C1.07194572 116.16552615 19.25934897 81.04853715 17.08203125 45.3671875 C16.406655 40.54849178 15.06849711 36.27256593 12.08203125 32.3671875 C7.27710468 29.21395444 2.68419768 30.26119864 -1.91796875 33.3671875 Z M-24.91796875 214.3671875 C-52.80784898 237.83078473 -85.40755662 266.26055663 -88.91796875 305.1171875 C-89.49030768 325.74340193 -81.96136194 342.34376594 -68.0300293 357.22949219 C-64.26101406 361.13791023 -60.50925982 364.47873229 -55.91796875 367.3671875 C-54.44650391 368.30111328 -54.44650391 368.30111328 -52.9453125 369.25390625 C-34.59001251 380.31766342 -14.35634927 386.68768257 7.08203125 387.3671875 C6.5001786 381.57097447 5.71718833 375.8623701 4.6550293 370.13549805 C4.51500488 369.36651688 4.37498047 368.59753571 4.23071289 367.80525208 C3.77144073 365.28756833 3.30769685 362.7707324 2.84375 360.25390625 C2.51823166 358.47626316 2.19294402 356.69857781 1.86787415 354.92085266 C1.18640084 351.19777091 0.50283054 347.47508254 -0.18237305 343.75268555 C-1.04948477 339.04168794 -1.91248068 334.32994887 -2.77398396 329.61792278 C-3.44621719 325.94277459 -4.12017795 322.2679448 -4.7946682 318.59321022 C-5.11273283 316.85980169 -5.43041781 315.12632345 -5.74767494 313.39276695 C-8.01302478 301.02497407 -10.42068003 288.69022227 -12.91796875 276.3671875 C-13.86792725 277.13957764 -14.81788574 277.91196777 -15.79663086 278.70776367 C-16.59815834 279.35946785 -16.59815834 279.35946785 -17.4158783 280.02433777 C-26.5470789 288.18751479 -30.68457664 304.60545858 -31.91796875 316.3671875 C-32.07260095 319.53537437 -32.10791508 322.69551663 -32.10546875 325.8671875 C-32.10611328 326.73633789 -32.10675781 327.60548828 -32.10742188 328.50097656 C-32.04489606 336.25133514 -31.21411672 343.72917265 -29.91796875 351.3671875 C-39.61462715 344.80708034 -41.67234242 330.17513961 -43.91796875 319.3671875 C-47.40821802 297.68123426 -41.98246325 276.91027665 -29.2421875 259.23828125 C-26.55064977 255.91344052 -23.65256833 253.05919729 -20.3515625 250.34375 C-16.80855272 245.45883733 -19.37523865 237.50680038 -20.2421875 231.96289062 C-20.42394531 230.83818359 -20.60570312 229.71347656 -20.79296875 228.5546875 C-21.05400391 226.83862305 -21.05400391 226.83862305 -21.3203125 225.08789062 C-21.58134766 223.45303711 -21.58134766 223.45303711 -21.84765625 221.78515625 C-22.00476074 220.79281982 -22.16186523 219.8004834 -22.32373047 218.77807617 C-22.73815515 216.20211092 -22.73815515 216.20211092 -24.91796875 214.3671875 Z M-2.91796875 265.3671875 C-5.11085776 268.02823518 -5.11085776 268.02823518 -4.86009693 270.25337505 C-4.71466292 270.96726296 -4.56922892 271.68115088 -4.41938782 272.41667175 C-4.25818954 273.23908859 -4.09699127 274.06150543 -3.9309082 274.90884399 C-3.74141602 275.8079953 -3.55192383 276.70714661 -3.35668945 277.63354492 C-3.16672897 278.58363937 -2.97676849 279.53373383 -2.78105164 280.51261902 C-2.14704109 283.66846682 -1.49540036 286.82040777 -0.84375 289.97265625 C-0.39855298 292.17183666 0.0455072 294.37124749 0.48847961 296.57087708 C1.66174225 302.38177035 2.8497831 308.1895453 4.04107666 313.99676514 C5.2394127 319.84968535 6.42519933 325.7051427 7.61132812 331.56054688 C8.95023953 338.16955891 10.29013201 344.77833865 11.64152527 351.3848114 C12.05243555 353.39607553 12.46319148 355.40737119 12.8737793 357.41870117 C13.06784205 358.36888217 13.26190481 359.31906317 13.46184826 360.29803753 C14.89382928 367.34758696 16.22665403 374.41136065 17.4947052 381.49214172 C17.93790391 384.29488643 17.93790391 384.29488643 19.08203125 386.3671875 C42.3357628 384.77296004 67.19820241 377.49463904 83.08203125 359.3671875 C93.2096473 346.95685135 97.68336126 332.4390728 96.08203125 316.3671875 C93.50169425 298.60255969 85.41404201 280.82687379 71.08203125 269.3671875 C48.92693217 253.17420903 20.70396545 250.04153815 -2.91796875 265.3671875 Z " fill="#EFEFEF" transform="translate(249.91796875,-0.3671875)"/>
<path d="M0 0 C0.33 0 0.66 0 1 0 C1.4745169 2.55806235 1.9488071 5.11616645 2.42285156 7.67431641 C2.85533382 10.00740962 3.28828925 12.34041516 3.72167969 14.67333984 C4.95295059 21.31041939 6.1747018 27.94904336 7.37889099 34.59109497 C8.01054267 38.07376424 8.64509053 41.55590351 9.27975464 45.0380249 C9.59376717 46.76551156 9.90636447 48.49325606 10.21755981 50.22125244 C10.65712157 52.66118152 11.10149336 55.1001901 11.546875 57.5390625 C11.74503059 58.64973083 11.74503059 58.64973083 11.94718933 59.78283691 C12.33733255 63.18076609 12.33733255 63.18076609 14 66 C14.47930671 69.20536362 14.87206832 72.41058178 15.25 75.62890625 C15.40362705 79.11109275 15.40362705 79.11109275 17 82 C17.23678716 84.69235776 17.42198025 87.36498156 17.5625 90.0625 C17.62727539 91.20041992 17.62727539 91.20041992 17.69335938 92.36132812 C17.79973633 94.24065438 17.90039934 96.12030244 18 98 C-10.76262424 99.36964877 -38.01058481 86.63068537 -59.1640625 68.015625 C-61 66 -61 66 -61 63 C-60.53851563 63.49628906 -60.07703125 63.99257813 -59.6015625 64.50390625 C-39.19798802 85.75426939 -11.28068515 93.12659111 17 97 C16.8047876 96.0198291 16.6095752 95.0396582 16.40844727 94.02978516 C12.31490969 73.43413012 8.35497986 52.81571216 4.60665894 32.15423584 C4.20310631 29.93129607 3.79777942 27.70867764 3.39065552 25.48638916 C2.81741241 22.35257401 2.25136425 19.21754579 1.6875 16.08203125 C1.51600937 15.14932907 1.34451874 14.21662689 1.16783142 13.25566101 C0.37123543 8.77590772 -0.20350039 4.57263489 0 0 Z " fill="#404040" transform="translate(240,290)"/>
<path d="M0 0 C0.33 0 0.66 0 1 0 C1.14431943 4.11310376 1.23059738 7.2183818 0.05737305 11.19506836 C-3.15235286 22.74519032 -3.30367358 34.80273902 -3.20581055 46.70898438 C-3.18750949 48.99881202 -3.18530244 51.28823148 -3.18554688 53.578125 C-3.16445179 62.21543455 -2.84850373 70.78595969 -2.21826172 79.40039062 C-1.88262756 84.93572621 -1.9145558 90.45562088 -2 96 C-2.33 96 -2.66 96 -3 96 C-4.64991286 80.82606741 -5.23437439 65.70280775 -5.29956055 50.4486084 C-5.30806366 48.55201243 -5.32158372 46.65543107 -5.34057617 44.75891113 C-5.4769571 29.50517647 -4.4522785 14.66412596 0 0 Z " fill="#444444" transform="translate(218,30)"/>
<path d="M0 0 C3.3125 2.125 3.3125 2.125 4.3125 4.125 C3.260625 3.691875 3.260625 3.691875 2.1875 3.25 C1.23875 2.87875 0.29 2.5075 -0.6875 2.125 C-1.595 1.75375 -2.5025 1.3825 -3.4375 1 C-8.88904483 -0.46772361 -13.59701905 -0.89890904 -18.75 1.625 C-27.63092616 8.68399728 -27.63092616 8.68399728 -32.0234375 18.640625 C-32.19682464 30.7777247 -26.88677329 36.57533041 -18.6875 45.125 C-21.6875 45.125 -21.6875 45.125 -23.84375 43.18359375 C-31.12461145 35.04116369 -34.34520584 29.37708795 -34.02734375 18.27734375 C-33.20241059 10.62537751 -29.49751089 6.45363754 -23.78515625 1.5703125 C-16.84306548 -3.21287854 -7.57605496 -3.66495078 0 0 Z " fill="#626262" transform="translate(228.6875,444.875)"/>
<path d="M0 0 C0.33 0 0.66 0 1 0 C1.25234698 7.19188885 1.25234698 7.19188885 0.015625 11.15234375 C-5.13567433 30.66784315 1.81442228 49.50217796 10 67 C10.66 65.68 11.32 64.36 12 63 C12 65.31 12 67.62 12 70 C7.2328079 68.10337519 5.82194026 65.01970008 3.5234375 60.609375 C-4.59762096 41.36871342 -6.65430065 19.96290194 0 0 Z " fill="#393939" transform="translate(208,281)"/>
<path d="M0 0 C0.33 0 0.66 0 1 0 C5.48717949 55.76923077 5.48717949 55.76923077 -6 73 C-6.18334023 68.32482415 -5.73272093 65.28083995 -4 61 C-3.6989347 58.85954944 -3.50311446 56.72962304 -3.34375 54.57421875 C-3 52 -3 52 -2.00439453 48.48950195 C-0.75072695 43.52784656 -0.64985291 38.69071153 -0.5859375 33.59375 C-0.56657135 32.6284436 -0.5472052 31.66313721 -0.5272522 30.6685791 C-0.46789982 27.61247343 -0.42124962 24.55632918 -0.375 21.5 C-0.33677936 19.41665105 -0.2977253 17.33331722 -0.2578125 15.25 C-0.16223511 10.1667907 -0.07804187 5.08350753 0 0 Z " fill="#3A3A3A" transform="translate(286,64)"/>
<path d="M0 0 C1.2828519 3.90021415 0.35637148 6.03660359 -1.171875 9.80859375 C-2.5494035 13.45384606 -3.26098483 17.18277287 -4 21 C-4.18691406 21.83660156 -4.37382812 22.67320312 -4.56640625 23.53515625 C-5.91300627 30.23048922 -6.18141706 36.75629328 -6.1875 43.5625 C-6.18830566 44.44397705 -6.18911133 45.3254541 -6.18994141 46.23364258 C-6.14918726 51.19424086 -6.14918726 51.19424086 -5 56 C-4.93259135 57.56118428 -4.91485544 59.1250252 -4.9375 60.6875 C-4.94652344 61.49574219 -4.95554688 62.30398438 -4.96484375 63.13671875 C-4.97644531 63.75160156 -4.98804688 64.36648438 -5 65 C-10.96472211 55.03362888 -9.17534226 40.10299046 -8 29 C-7.89816406 27.90042969 -7.79632813 26.80085938 -7.69140625 25.66796875 C-6.60082635 16.54982131 -3.44629735 8.44234476 0 0 Z " fill="#5E5E5E" transform="translate(140,259)"/>
<path d="M0 0 C0 3 0 3 -1.21484375 4.46484375 C-8.28857973 10.5120058 -16.26651782 14.34664048 -25.70703125 14.22265625 C-31.39802889 13.67003808 -37.15924394 12.43737836 -41 8 C-40.02160156 7.81824219 -40.02160156 7.81824219 -39.0234375 7.6328125 C-34.21353658 6.71056011 -29.60974535 5.69832723 -25 4 C-27.48952921 6.66735273 -29.63408134 8.55746343 -33 10 C-25.48303182 12.50565606 -17.0460003 11.48442715 -10 8 C-6.35646126 5.64426375 -3.067238 3.067238 0 0 Z " fill="#3C3C3C" transform="translate(257,480)"/>
<path d="M0 0 C0 0.99 0 1.98 0 3 C-0.84691406 3.64582031 -1.69382813 4.29164063 -2.56640625 4.95703125 C-5.37425485 8.46796874 -5.28876107 9.101459 -4.90234375 13.38671875 C-4.60892481 15.49110348 -4.28618411 17.59156366 -3.9375 19.6875 C-3.78861328 20.72583984 -3.63972656 21.76417969 -3.48632812 22.83398438 C-2.63941522 28.58218049 -1.59034022 34.27234634 -0.36938477 39.95239258 C0 42 0 42 0 45 C-0.66 45 -1.32 45 -2 45 C-3.92837396 38.05057688 -5.35028702 31.38814183 -5.7890625 24.1796875 C-5.87267461 21.95550155 -5.87267461 21.95550155 -7 20 C-8.34436401 9.0770424 -8.34436401 9.0770424 -5.4375 4.5859375 C-3.70443974 2.88781797 -1.98482927 1.39241849 0 0 Z " fill="#636363" transform="translate(241,197)"/>
<path d="M0 0 C0.66 0.33 1.32 0.66 2 1 C-5.48437704 7.0290815 -15.5462259 8.94859298 -25 8 C-35.30117272 6.60680861 -35.30117272 6.60680861 -40 4 C-36.48025969 2.82675323 -34.77399866 3.58211391 -31.29638672 4.52441406 C-27.21249642 5.3701953 -23.20452633 5.1021332 -19.0625 4.875 C-18.22009766 4.85179687 -17.37769531 4.82859375 -16.50976562 4.8046875 C-10.9364679 4.53009854 -6.76630415 3.32283922 -1.81030273 0.74658203 C-1.21290283 0.50020996 -0.61550293 0.25383789 0 0 Z " fill="#5F5F5F" transform="translate(256,492)"/>
<path d="M0 0 C7.8580775 11.78711625 7.10344007 31.59056957 5 45 C4.67 45 4.34 45 4 45 C3.98541748 44.23445801 3.97083496 43.46891602 3.95581055 42.68017578 C3.88065298 39.16131431 3.78421764 35.6433323 3.6875 32.125 C3.65366211 30.31902344 3.65366211 30.31902344 3.61914062 28.4765625 C3.42481839 21.97560047 2.86890645 16.27923646 0.65039062 10.14257812 C-0.39280739 6.70597684 -0.19801199 3.56421585 0 0 Z " fill="#606060" transform="translate(357,280)"/>
<path d="M0 0 C5.53604375 0.11793339 11.07189613 0.24215781 16.60766602 0.37231445 C18.49239218 0.41572933 20.37715936 0.45739943 22.26196289 0.49731445 C24.96513249 0.55485893 27.66809436 0.61859804 30.37109375 0.68359375 C31.21900986 0.70030624 32.06692596 0.71701874 32.9405365 0.73423767 C38.88612829 0.88612829 38.88612829 0.88612829 40 2 C40.04092937 4.33297433 40.04241723 6.66705225 40 9 C39.67 9 39.34 9 39 9 C38.505 6.525 38.505 6.525 38 4 C37.34628418 3.98018066 36.69256836 3.96036133 36.01904297 3.93994141 C23.90116234 3.55426594 11.95384257 3.16768624 0 1 C0 0.67 0 0.34 0 0 Z " fill="#707070" transform="translate(221,399)"/>
<path d="M0 0 C0.66 0.66 1.32 1.32 2 2 C0.35374012 1.7107506 -1.29198182 1.41843946 -2.9375 1.125 C-3.95457031 0.94453125 -4.97164063 0.7640625 -6.01953125 0.578125 C-8.43944419 0.10873166 -10.75235437 -0.47240592 -13.125 -1.125 C-17.61205676 -2.14921948 -22.0431368 -2.21758811 -26.625 -2.25 C-27.34187988 -2.25918457 -28.05875977 -2.26836914 -28.79736328 -2.27783203 C-33.52618755 -2.25056084 -37.44741925 -1.38818189 -42 0 C-44.71562756 0.21794764 -47.26760245 0.0958736 -50 0 C-36.89283278 -8.73811148 -14.0363417 -4.67878057 0 0 Z " fill="#444444" transform="translate(311,231)"/>
<path d="M0 0 C0.33 0 0.66 0 1 0 C3.79796521 17.61219172 5.40337416 35.39493876 -5 51 C-5.33 50.34 -5.66 49.68 -6 49 C-5.29296875 47.08203125 -5.29296875 47.08203125 -4.1875 44.8125 C-2.38046281 40.93671679 -1.05908101 37.15485626 0 33 C0.17917969 32.38125 0.35835938 31.7625 0.54296875 31.125 C2.65250862 21.31654112 0.66117579 9.96486364 0 0 Z " fill="#4A4A4A" transform="translate(276,429)"/>
<path d="M0 0 C0.84111328 -0.01224609 1.68222656 -0.02449219 2.54882812 -0.03710938 C3.76795898 -0.04000977 3.76795898 -0.04000977 5.01171875 -0.04296875 C5.74221436 -0.04707764 6.47270996 -0.05118652 7.2253418 -0.05541992 C9.61137635 0.22228559 11.23762461 1.00624602 13.3125 2.1875 C11.53359375 2.11789063 11.53359375 2.11789063 9.71875 2.046875 C-1.49586225 1.7463588 -10.947712 2.91783121 -21.6875 6.1875 C-23.00445813 6.56771235 -24.32214841 6.94539965 -25.640625 7.3203125 C-26.64609375 7.60648437 -27.6515625 7.89265625 -28.6875 8.1875 C-26.48361977 5.74649342 -24.43717591 4.39452392 -21.4375 3.0625 C-20.71046875 2.72992188 -19.9834375 2.39734375 -19.234375 2.0546875 C-12.99484456 -0.0698152 -6.51627064 0.00506315 0 0 Z " fill="#555555" transform="translate(280.6875,253.8125)"/>
<path d="M0 0 C0.33 0 0.66 0 1 0 C0.54563224 12.72229734 -5.13526124 26.05957958 -13 36 C-13.99 36.66 -14.98 37.32 -16 38 C-14.57584263 35.03019316 -12.94555009 32.28319276 -11.1875 29.5 C-6.15177426 21.11533196 -2.74772569 12.78660256 -1.359375 3.08203125 C-1 1 -1 1 0 0 Z " fill="#404040" transform="translate(360,325)"/>
<path d="M0 0 C0.66 0 1.32 0 2 0 C4.65103067 11.59825919 5.62017743 22.8345712 1 34 C-0.25111629 30.38566405 0.32486918 27.71321951 1 24 C1.35113842 15.95479907 0.8972159 7.99483449 0 0 Z " fill="#8C8C8C" transform="translate(344,305)"/>
<path d="M0 0 C0.33 0 0.66 0 1 0 C1.66 4.29 2.32 8.58 3 13 C4.25296875 12.77183594 5.5059375 12.54367187 6.796875 12.30859375 C8.44784089 12.01779862 10.09888684 11.72745776 11.75 11.4375 C12.575 11.28603516 13.4 11.13457031 14.25 10.97851562 C15.04921875 10.83994141 15.8484375 10.70136719 16.671875 10.55859375 C17.4050293 10.42767334 18.13818359 10.29675293 18.89355469 10.16186523 C21.16233287 9.98752588 22.83778579 10.33125193 25 11 C16.80888297 13.64381875 9.68268056 15.52622306 1 15 C0.67 10.05 0.34 5.1 0 0 Z " fill="#606060" transform="translate(266,373)"/>
<path d="M0 0 C0.66 0.33 1.32 0.66 2 1 C2.45002919 3.51781038 2.79476626 5.96234974 3.0625 8.5 C3.18808995 13.12673931 3.18808995 13.12673931 5 17 C5.23678716 19.69235776 5.42198025 22.36498156 5.5625 25.0625 C5.60568359 25.82111328 5.64886719 26.57972656 5.69335938 27.36132812 C5.79973633 29.24065438 5.90039934 31.12030244 6 33 C2.7 33 -0.6 33 -4 33 C-4 32.67 -4 32.34 -4 32 C-1.03 32 1.94 32 5 32 C4.77280273 30.91900024 4.77280273 30.91900024 4.54101562 29.81616211 C3.85348272 26.52473054 3.17665902 23.23118348 2.5 19.9375 C2.26152344 18.80376953 2.02304688 17.67003906 1.77734375 16.50195312 C0.63567242 10.90776362 -0.33169695 5.71348004 0 0 Z " fill="#646464" transform="translate(252,355)"/>
<path d="M0 0 C0.33 0 0.66 0 1 0 C1.14548521 4.14632849 1.22571606 7.24275901 0.03125 11.25 C-1.10616975 15.38607181 -1.43783623 19.17562493 -1.625 23.4375 C-1.66367188 24.16904297 -1.70234375 24.90058594 -1.7421875 25.65429688 C-1.83533984 27.43583532 -1.91870286 29.21788122 -2 31 C-2.66 30.67 -3.32 30.34 -4 30 C-4.57605607 19.9296865 -3.19606631 9.58819892 0 0 Z " fill="#3D3D3D" transform="translate(208,281)"/>
<path d="M0 0 C1.66015625 1.37890625 1.66015625 1.37890625 4.09765625 3.87890625 C1.09765625 3.87890625 1.09765625 3.87890625 -0.90234375 2.87890625 C-3.70430666 2.78028644 -6.47588422 2.73994549 -9.27734375 2.75390625 C-10.045625 2.75003906 -10.81390625 2.74617187 -11.60546875 2.7421875 C-12.72308594 2.74412109 -12.72308594 2.74412109 -13.86328125 2.74609375 C-14.54181152 2.74722168 -15.2203418 2.74834961 -15.91943359 2.74951172 C-18.01469792 2.88623791 -19.88463523 3.3111967 -21.90234375 3.87890625 C-17.93177036 -1.58063216 -5.79516229 -3.41521885 0 0 Z " fill="#898989" transform="translate(258.90234375,1.12109375)"/>
<path d="M0 0 C0.33 0 0.66 0 1 0 C1.14491545 4.13009041 1.21640148 7.24980819 0.0625 11.25 C-1.09177016 15.32389469 -1.65676201 19.24254817 -2.125 23.4375 C-2.21136719 24.16904297 -2.29773438 24.90058594 -2.38671875 25.65429688 C-2.59628393 27.43560094 -2.79887868 29.21772281 -3 31 C-3.33 31 -3.66 31 -4 31 C-4.48661124 20.31257527 -3.39500893 10.18502678 0 0 Z " fill="#7E7E7E" transform="translate(218,30)"/>
<path d="M0 0 C0.33 0 0.66 0 1 0 C1.84097414 4.22768438 2.67144025 8.45736656 3.5 12.6875 C3.85771484 14.48477539 3.85771484 14.48477539 4.22265625 16.31835938 C4.44824219 17.47529297 4.67382812 18.63222656 4.90625 19.82421875 C5.11572266 20.88729248 5.32519531 21.95036621 5.54101562 23.0456543 C5.96252805 25.75880423 6.08856503 28.26112659 6 31 C4.09234178 28.13851267 3.5716491 26.64699621 2.9375 23.375 C2.52905984 20.40230348 2.52905984 20.40230348 1 18 C0.84417697 16.65984779 0.74955858 15.31241097 0.68359375 13.96484375 C0.64169922 13.15595703 0.59980469 12.34707031 0.55664062 11.51367188 C0.51732422 10.66353516 0.47800781 9.81339844 0.4375 8.9375 C0.39431641 8.08349609 0.35113281 7.22949219 0.30664062 6.34960938 C0.20023298 4.23327963 0.09958269 2.11666187 0 0 Z " fill="#515151" transform="translate(245,268)"/>
<path d="M0 0 C0.33 0 0.66 0 1 0 C1.03758423 0.92111572 1.03758423 0.92111572 1.07592773 1.86083984 C1.19345264 4.69902634 1.31545526 7.5370044 1.4375 10.375 C1.47681641 11.34050781 1.51613281 12.30601562 1.55664062 13.30078125 C1.82980822 19.56262312 2.30323128 25.77097309 3 32 C0.35892646 29.53258609 -0.79641403 27.42559084 -2 24 C-1.34 24 -0.68 24 0 24 C0 16.08 0 8.16 0 0 Z " fill="#BEBEBE" transform="translate(216,317)"/>
<path d="M0 0 C0.66 0.33 1.32 0.66 2 1 C0.89718873 2.27200971 -0.20730769 3.54255853 -1.3125 4.8125 C-1.92738281 5.52019531 -2.54226562 6.22789063 -3.17578125 6.95703125 C-6.44911047 10.6228796 -6.44911047 10.6228796 -8 12 C-8.66 12 -9.32 12 -10 12 C-10 12.99 -10 13.98 -10 15 C-10.66 15 -11.32 15 -12 15 C-10.23188872 8.71338212 -5.3319351 3.5546234 0 0 Z " fill="#868686" transform="translate(235,5)"/>
<path d="M0 0 C0.66 0.33 1.32 0.66 2 1 C-0.55991624 3.01136276 -3.04590299 4.62845496 -6 6 C-3.525 6.99 -3.525 6.99 -1 8 C-4.24215827 9.08557659 -6.02321809 8.94015194 -9.1875 7.6875 C-9.88230469 7.42324219 -10.57710937 7.15898437 -11.29296875 6.88671875 C-13 6 -13 6 -14 4 C-13.32453125 3.87882812 -12.6490625 3.75765625 -11.953125 3.6328125 C-10.61507812 3.38144531 -10.61507812 3.38144531 -9.25 3.125 C-8.36828125 2.96257812 -7.4865625 2.80015625 -6.578125 2.6328125 C-3.99249343 2.10389584 -3.99249343 2.10389584 -1.796875 0.8671875 C-0.90742188 0.43792969 -0.90742188 0.43792969 0 0 Z " fill="#313131" transform="translate(230,484)"/>
<path d="M0 0 C0.33 0 0.66 0 1 0 C1.65720455 8.05075569 -0.77071154 15.35672529 -3 23 C-3.33 23 -3.66 23 -4 23 C-4.18334023 18.32482415 -3.73272093 15.28083995 -2 11 C-1.66584036 8.66495767 -1.43967602 6.33892309 -1.24609375 3.98828125 C-1 2 -1 2 0 0 Z " fill="#6C6C6C" transform="translate(284,114)"/>
<path d="M0 0 C1.75128818 0.28382946 3.50100003 0.57739529 5.25 0.875 C6.71179688 1.11863281 6.71179688 1.11863281 8.203125 1.3671875 C10.77264117 1.94855848 12.72071056 2.70840265 15 4 C9.01006953 4.3152595 5.36439644 3.68219822 0 1 C0 0.67 0 0.34 0 0 Z " fill="#4D4D4D" transform="translate(216,495)"/>
<path d="M0 0 C0.33 0 0.66 0 1 0 C1.19392201 5.52677733 0.7479503 9.75614911 -1 15 C-1.33 15 -1.66 15 -2 15 C-2.19392201 9.47322267 -1.7479503 5.24385089 0 0 Z " fill="#797979" transform="translate(208,281)"/>
<path d="M0 0 C5.95507399 0.3916035 10.62819824 1.37124595 16 4 C12.65508511 5.13529002 10.73934469 4.86633118 7.4375 3.6875 C6.67308594 3.42324219 5.90867188 3.15898437 5.12109375 2.88671875 C3 2 3 2 0 0 Z " fill="#555555" transform="translate(197,392)"/>
<path d="M0 0 C7.66816143 -0.76681614 7.66816143 -0.76681614 10.93359375 1.11328125 C12.5625 2.5 12.5625 2.5 15 5 C12 5 12 5 9.1875 3.5625 C6.0309269 2.01516024 3.46750207 1.41279787 0 1 C0 0.67 0 0.34 0 0 Z " fill="#212121" transform="translate(248,0)"/>
<path d="M0 0 C1.47118907 3.82509158 0.45442741 6.28312995 -1 10 C-1.33 10.66 -1.66 11.32 -2 12 C-2.66 12 -3.32 12 -4 12 C-2.66666667 8 -1.33333333 4 0 0 Z " fill="#707070" transform="translate(264,465)"/>
<path d="M0 0 C7.38461538 -0.49230769 7.38461538 -0.49230769 10.5 2 C10.995 2.66 11.49 3.32 12 4 C7.91621717 3.25749403 3.98060777 2.17076699 0 1 C0 0.67 0 0.34 0 0 Z " fill="#676767" transform="translate(294,256)"/>
<path d="M0 0 C0.33 0 0.66 0 1 0 C1.33692785 1.60341555 1.66941093 3.20776555 2 4.8125 C2.185625 5.70582031 2.37125 6.59914062 2.5625 7.51953125 C3 10 3 10 3 13 C2.34 13 1.68 13 1 13 C-0.10228696 8.59085217 -0.07654536 4.51617599 0 0 Z " fill="#525252" transform="translate(238,229)"/>
<path d="M0 0 C0.33 0 0.66 0 1 0 C1 1.98 1 3.96 1 6 C1.66 6 2.32 6 3 6 C3 8.31 3 10.62 3 13 C-0.22430866 8.16353702 -0.09242903 5.73060016 0 0 Z " fill="#8D8D8D" transform="translate(234,209)"/>
<path d="M0 0 C0.33 0 0.66 0 1 0 C0.67 2.97 0.34 5.94 0 9 C-0.66 9 -1.32 9 -2 9 C-1.125 1.125 -1.125 1.125 0 0 Z " fill="#787878" transform="translate(360,325)"/>
<path d="" fill="#000000" transform="translate(0,0)"/>
</svg>
