<?xml version="1.0" encoding="UTF-8"?>
<svg version="1.1" xmlns="http://www.w3.org/2000/svg" width="500" height="500">
<path d="M0 0 C0 6.6 0 13.2 0 20 C-2.97 20.99 -5.94 21.98 -9 23 C-16.04995073 27.85406444 -19.21350148 33.68695555 -21 42 C-21.09002888 43.53563368 -21.13005231 45.07462467 -21.13307858 46.61289215 C-21.13731962 47.54003918 -21.14156067 48.46718621 -21.14593023 49.42242861 C-21.1455441 50.43758405 -21.14515797 51.4527395 -21.14476013 52.49865723 C-21.14828698 53.57983306 -21.15181382 54.6610089 -21.15544754 55.77494764 C-21.16615175 59.41051626 -21.16981858 63.04605869 -21.17358398 66.68164062 C-21.1798881 69.28341788 -21.18665374 71.88519405 -21.19384766 74.48696899 C-21.20878505 80.09739337 -21.22033061 85.70781642 -21.22979546 91.31825256 C-21.24367968 99.44308274 -21.26487035 107.56788193 -21.28822399 115.69268984 C-21.32614723 128.89179891 -21.36110687 142.09091362 -21.39282227 155.29003906 C-21.39472276 156.08013286 -21.39662325 156.87022666 -21.39858133 157.68426269 C-21.42538133 168.88287691 -21.44926335 180.08149547 -21.47196633 191.28011864 C-21.47436229 192.46162105 -21.47436229 192.46162105 -21.47680664 193.66699219 C-21.47840011 194.45369728 -21.47999357 195.24040237 -21.48163532 196.05094701 C-21.50844788 209.19093853 -21.54286797 222.3308972 -21.58346039 235.47085333 C-21.60817411 243.56917129 -21.62653496 251.667454 -21.636616 259.76580364 C-21.64491393 265.98160272 -21.66344189 272.1973334 -21.68567657 278.41309738 C-21.69313058 280.95589305 -21.69723184 283.49870117 -21.69767189 286.04150772 C-21.69876056 289.52292517 -21.71206357 293.00409823 -21.72825623 296.48547363 C-21.72563937 297.4827833 -21.72302252 298.48009297 -21.72032636 299.50762415 C-21.8491067 317.33337937 -26.79380399 330.77919003 -39.32421875 343.390625 C-40.64873047 344.68226563 -40.64873047 344.68226563 -42 346 C-42.96873047 346.98226562 -42.96873047 346.98226562 -43.95703125 347.984375 C-53.96712492 357.49287356 -67.07055753 363.59193101 -80 368 C-81.17175781 368.41378906 -82.34351563 368.82757813 -83.55078125 369.25390625 C-102.5297381 375.0057126 -124.41320205 374.42862887 -142.16015625 365.390625 C-151.69656117 359.79456504 -158.04764953 352.7561309 -161 342 C-163.60706982 329.59394363 -159.49412095 318.57776033 -153 308 C-150.24181337 304.39639218 -147.224803 301.18797817 -144 298 C-143.26136719 297.23945313 -142.52273438 296.47890625 -141.76171875 295.6953125 C-122.79900224 277.27438789 -95.50379446 269.55772073 -69.70703125 269.84765625 C-61.91503647 270.03580859 -55.04740451 271.12705722 -47.81665039 274.05175781 C-46.91499649 274.41553528 -46.01334259 274.77931274 -45.08436584 275.15411377 C-44.39652512 275.43325623 -43.70868439 275.71239868 -43 276 C-43.00138269 274.68774649 -43.00138269 274.68774649 -43.00279331 273.34898281 C-43.02488195 252.05792122 -43.04142787 230.76686161 -43.05181217 209.47579098 C-43.05696747 199.17957587 -43.0639956 188.8833684 -43.07543945 178.5871582 C-43.08540966 169.61252368 -43.09185901 160.6378947 -43.09408849 151.6632548 C-43.09539162 146.91170062 -43.09845237 142.1601623 -43.10573006 137.4086132 C-43.11252711 132.93453644 -43.11460945 128.46048204 -43.11310768 123.9864006 C-43.11338235 122.34614376 -43.11536558 120.70588615 -43.11920547 119.06563377 C-43.12420032 116.82159624 -43.12297701 114.57764248 -43.12025452 112.33360291 C-43.12163721 110.45176253 -43.12163721 110.45176253 -43.12304783 108.53190517 C-42.99848906 104.95663081 -42.57141918 101.52916382 -42 98 C-58.88625019 101.15627871 -75.67980328 104.60196023 -92.4375 108.37890625 C-94.66642661 108.8781884 -96.89543241 109.37711717 -99.12451172 109.87571716 C-104.91143799 111.1710815 -110.69732379 112.47103204 -116.48297119 113.77209473 C-122.3461019 115.08975508 -128.21019207 116.40313071 -134.07421875 117.71679688 C-140.6909703 119.19932956 -147.30763146 120.68225528 -153.92358398 122.16835022 C-163.6846945 124.36091238 -173.44646215 126.55008336 -183.21414185 128.71322727 C-192.87003852 130.85314485 -202.50431513 133.09019013 -212.12548828 135.38110352 C-216.21068176 136.35300992 -220.30084799 137.2905459 -224.40234375 138.19140625 C-241.98785058 141.6249191 -241.98785058 141.6249191 -255 153 C-257.40466583 157.61259 -257.27967671 161.87943545 -257.2515564 166.95523071 C-257.25452654 167.85829024 -257.25749667 168.76134976 -257.26055682 169.69177473 C-257.26819682 172.71857186 -257.26170265 175.74517493 -257.25537109 178.77197266 C-257.25812105 180.94202811 -257.26180098 183.11208256 -257.26634216 185.28213501 C-257.27445667 189.95674626 -257.27662194 194.63130967 -257.27439499 199.30592728 C-257.27156251 206.70247557 -257.28591242 214.09892828 -257.30337524 221.49545288 C-257.35040551 242.52901978 -257.37433675 263.56257712 -257.38085938 284.59619141 C-257.38461352 296.2118664 -257.40267313 307.82743345 -257.43595374 319.44306219 C-257.45614366 326.79023718 -257.45854932 334.13713333 -257.44767356 341.48432469 C-257.44506035 346.06500481 -257.45910079 350.64552373 -257.47775459 355.22616196 C-257.48306247 357.34366518 -257.48160394 359.46119834 -257.47271919 361.57868958 C-257.39327983 382.18030227 -257.39327983 382.18030227 -262 391 C-262.68277291 392.31487113 -262.68277291 392.31487113 -263.37933922 393.65630531 C-274.9368477 414.91486611 -297.52288041 427.33546308 -320 434 C-338.7808514 439.15848534 -360.49854344 439.17434583 -378 430 C-387.38477207 423.95972428 -393.85968807 416.82199805 -397 406 C-399.16929929 394.96321416 -395.6771248 384.71168047 -390.13671875 375.1640625 C-383.41196295 365.20601461 -374.92346461 357.74148411 -365 351 C-364.236875 350.45859375 -363.47375 349.9171875 -362.6875 349.359375 C-343.09336539 336.43268897 -315.96037404 331.29738789 -293.00390625 335.8671875 C-288.24706543 336.97566329 -283.63087311 338.45637563 -279 340 C-279.00184359 338.68139858 -279.00368717 337.36279716 -279.00558662 336.00423813 C-279.04894297 304.67274984 -279.08190136 273.34126951 -279.10213066 242.00975822 C-279.10463194 238.14973459 -279.1072206 234.28971103 -279.10986328 230.4296875 C-279.1103879 229.66125661 -279.11091252 228.89282573 -279.11145304 228.10110906 C-279.12014534 215.6740756 -279.13590882 203.24706073 -279.15430559 190.82003829 C-279.17303737 178.05988148 -279.18412365 165.29973437 -279.18817699 152.53956437 C-279.19091526 144.67181129 -279.19955027 136.80411076 -279.21583293 128.93637386 C-279.22769789 122.89386017 -279.22890308 116.85139126 -279.22621536 110.80886459 C-279.22676414 108.33701378 -279.23072309 105.86516091 -279.23841095 103.39332199 C-279.24842048 100.00805335 -279.24594697 96.62300613 -279.24050903 93.23773193 C-279.24633472 92.26882137 -279.2521604 91.29991081 -279.25816262 90.30163932 C-279.17339008 70.66076298 -279.17339008 70.66076298 -273 64 C-266.70103835 58.94751875 -259.7451217 57.31796238 -252 55.5625 C-250.5486706 55.22308497 -249.09750696 54.8829606 -247.64648438 54.54223633 C-231.69340257 50.82817114 -215.67318964 47.39658964 -199.66710281 43.92015362 C-170.51763476 37.58810991 -141.4035874 31.09748466 -112.29100227 24.59842998 C-107.65545499 23.56361497 -103.01977813 22.52938211 -98.3840332 21.49545288 C-90.76094824 19.7951065 -83.13819092 18.09329661 -75.515625 16.390625 C-74.29411743 16.11785547 -73.07260986 15.84508595 -71.81408691 15.56405067 C-59.07502571 12.71831429 -46.33968068 9.85772149 -33.61523438 6.94726562 C-32.57209454 6.70890362 -31.5289547 6.47054161 -30.45420456 6.22495651 C-25.59876456 5.11497491 -20.74421708 4.001337 -15.89117432 2.88092041 C-14.20579098 2.49441472 -12.5203878 2.10799552 -10.83496094 1.72167969 C-10.07634514 1.5450605 -9.31772934 1.36844131 -8.53612518 1.18647003 C-5.61929339 0.52044155 -3.00327532 0 0 0 Z " fill="#F8F8F8" transform="translate(436,28)"/>
<path d="M0 0 C0 60.39 0 120.78 0 183 C-4.35010863 181.54996379 -7.99108518 180.09990776 -12 178 C-7.82412255 176.60804085 -5.86525224 178.17676781 -2 180 C-2.00092179 179.12516433 -2.00184359 178.25032866 -2.00279331 177.34898281 C-2.02488195 156.05792122 -2.04142787 134.76686161 -2.05181217 113.47579098 C-2.05696747 103.17957587 -2.0639956 92.8833684 -2.07543945 82.5871582 C-2.08540966 73.61252368 -2.09185901 64.6378947 -2.09408849 55.6632548 C-2.09539162 50.91170062 -2.09845237 46.1601623 -2.10573006 41.4086132 C-2.11252711 36.93453644 -2.11460945 32.46048204 -2.11310768 27.9864006 C-2.11338235 26.34614376 -2.11536558 24.70588615 -2.11920547 23.06563377 C-2.12420032 20.82159624 -2.12297701 18.57764248 -2.12025452 16.33360291 C-2.12117631 15.07904265 -2.1220981 13.8244824 -2.12304783 12.53190517 C-1.99848906 8.95663081 -1.57141918 5.52916382 -1 2 C-18.67156611 5.18905771 -36.16370135 8.98925422 -53.65234375 13.05249023 C-55.32682106 13.43734532 -57.00130015 13.82219267 -58.67578125 14.20703125 C-59.82588432 14.47856522 -59.82588432 14.47856522 -60.9992218 14.75558472 C-64.72952042 15.60943184 -68.16797849 16.21690688 -72 16 C-64.62294438 12.18713979 -58.31770004 10.60391905 -50 11 C-50 10.34 -50 9.68 -50 9 C-47.94921875 8.77213542 -45.8984375 8.54427083 -43.84765625 8.31640625 C-41.98859771 8.18113386 -41.98859771 8.18113386 -41 7 C-37.77437436 6.45783976 -34.53838585 6.03401348 -31.296875 5.59765625 C-28.10306471 5.13929214 -28.10306471 5.13929214 -25.67578125 4.03515625 C-21.70514217 2.4990696 -17.6348197 2.00156105 -13.4375 1.375 C-12.58736328 1.2409375 -11.73722656 1.106875 -10.86132812 0.96875 C-7.15690197 0.39928527 -3.76578349 0 0 0 Z " fill="#373737" transform="translate(395,124)"/>
<path d="M0 0 C0.85947396 2.97361062 1.12038135 5.60231862 1.10743046 8.69326401 C1.10593811 9.63826161 1.10444576 10.58325922 1.10290819 11.55689311 C1.0961044 12.59190684 1.08930061 13.62692056 1.08229065 14.69329834 C1.07906152 15.79519162 1.07583239 16.89708491 1.07250541 18.0323689 C1.06040817 21.73743438 1.0410398 25.44242655 1.02172852 29.14746094 C1.01158808 31.798263 1.00184943 34.44906369 0.99261475 37.09986877 C0.97190691 42.81347092 0.9474808 48.52704748 0.92053413 54.24062347 C0.88157908 62.50150975 0.84822407 70.76241116 0.81623887 79.02332702 C0.76419367 92.42588834 0.70761516 105.82842654 0.64819336 119.23095703 C0.59047793 132.25080465 0.5348928 145.27065848 0.48217773 158.29052734 C0.47892802 159.09297826 0.4756783 159.89542918 0.4723301 160.72219679 C0.45604049 164.74782928 0.43979281 168.77346193 0.42356598 172.79909468 C0.28887913 206.19942517 0.14683834 239.59972073 0 273 C-0.60917267 272.79444992 -1.21834534 272.58889984 -1.84597778 272.37712097 C-2.64977875 272.10724869 -3.45357971 271.8373764 -4.28173828 271.55932617 C-5.07653595 271.29190109 -5.87133362 271.02447601 -6.69021606 270.74894714 C-19.01466556 266.75274598 -34.26379513 264.66192841 -47 268 C-48.41534778 268.06456879 -49.83337689 268.08611039 -51.25 268.0625 C-53.10625 268.0315625 -53.10625 268.0315625 -55 268 C-44.29742353 261.82543665 -25.35806986 263.64443388 -13.74951172 266.3840332 C-9.78200349 267.44895638 -5.89550353 268.70149882 -2 270 C-2.00184359 268.68139858 -2.00368717 267.36279716 -2.00558662 266.00423813 C-2.04894297 234.67274984 -2.08190136 203.34126951 -2.10213066 172.00975822 C-2.10463194 168.14973459 -2.1072206 164.28971103 -2.10986328 160.4296875 C-2.1103879 159.66125661 -2.11091252 158.89282573 -2.11145304 158.10110906 C-2.12014534 145.6740756 -2.13590882 133.24706073 -2.15430559 120.82003829 C-2.17303737 108.05988148 -2.18412365 95.29973437 -2.18817699 82.53956437 C-2.19091526 74.67181129 -2.19955027 66.80411076 -2.21583293 58.93637386 C-2.22769789 52.89386017 -2.22890308 46.85139126 -2.22621536 40.80886459 C-2.22676414 38.33701378 -2.23072309 35.86516091 -2.23841095 33.39332199 C-2.24842048 30.00805335 -2.24594697 26.62300613 -2.24050903 23.23773193 C-2.24633472 22.26882137 -2.2521604 21.29991081 -2.25816262 20.30163932 C-2.22827381 13.3767279 -1.30748687 6.79555377 0 0 Z " fill="#5F5F5F" transform="translate(159,98)"/>
<path d="M0 0 C0 6.6 0 13.2 0 20 C-4.455 21.485 -4.455 21.485 -9 23 C-16.05114023 27.85488343 -19.21139721 33.68665414 -21 42 C-21.09160296 43.53114548 -21.13355228 45.06568513 -21.1386652 46.59955978 C-21.14413964 47.52365701 -21.14961409 48.44775424 -21.15525442 49.39985442 C-21.15623253 50.41152246 -21.15721064 51.42319049 -21.15821838 52.46551514 C-21.16315636 53.54290711 -21.16809434 54.62029908 -21.17318195 55.73033929 C-21.18858058 59.35245117 -21.19692402 62.9745453 -21.20532227 66.59667969 C-21.21489893 69.18837135 -21.22490888 71.78006144 -21.23532104 74.37174988 C-21.2570767 79.95764171 -21.27522452 85.54353593 -21.29092598 91.12944794 C-21.3136329 99.20575069 -21.34177459 107.2820273 -21.37124526 115.35830787 C-21.41891108 128.46135386 -21.46217801 141.56441054 -21.50268555 154.66748047 C-21.54204561 167.39633008 -21.58347306 180.12517019 -21.62768555 192.85400391 C-21.63177196 194.03079732 -21.63177196 194.03079732 -21.63594092 195.23136434 C-21.64962048 199.16709266 -21.66334074 203.10282084 -21.67708123 207.03854895 C-21.79103015 239.69234637 -21.89784301 272.34616353 -22 305 C-22.33 305 -22.66 305 -23 305 C-23.06870421 271.53819042 -23.12154812 238.07639842 -23.15319599 204.61453394 C-23.156948 200.66180506 -23.16083097 196.70907633 -23.16479492 192.75634766 C-23.16558185 191.96944846 -23.16636878 191.18254927 -23.16717956 190.37180464 C-23.18022455 177.63948155 -23.20387339 164.90719919 -23.23145839 152.17490025 C-23.25953784 139.10513108 -23.27618163 126.03538321 -23.28226548 112.96558511 C-23.28637666 104.90432929 -23.29934975 96.84318864 -23.3237494 88.78196828 C-23.34151937 82.59497638 -23.34335921 76.40807182 -23.33932304 70.22105789 C-23.34014751 67.6870859 -23.34610343 65.15310949 -23.35761642 62.61916351 C-23.37258526 59.15428527 -23.36893716 55.68989613 -23.36076355 52.2250061 C-23.36950207 51.22692417 -23.3782406 50.22884223 -23.38724393 49.20051539 C-23.32899318 40.03814859 -21.67461366 30.74324722 -15 24 C-10.69364019 20.63702125 -7.4275869 19.08551738 -2 18 C-2 12.72 -2 7.44 -2 2 C-3.464375 2.309375 -4.92875 2.61875 -6.4375 2.9375 C-11.28349169 3.91222871 -16.08155789 4.52402173 -21 5 C-17.46132568 2.96016267 -13.91801709 2.20375119 -9.9375 1.375 C-8.09478516 0.98441406 -8.09478516 0.98441406 -6.21484375 0.5859375 C-3 0 -3 0 0 0 Z " fill="#0A0A0A" transform="translate(436,28)"/>
<path d="M0 0 C0 5.28 0 10.56 0 16 C-0.99 15.505 -0.99 15.505 -2 15 C-1.505 8.565 -1.505 8.565 -1 2 C-18.66921075 5.20818699 -36.16219468 8.98890416 -53.65234375 13.05249023 C-55.32682106 13.43734532 -57.00130015 13.82219267 -58.67578125 14.20703125 C-59.82588432 14.47856522 -59.82588432 14.47856522 -60.9992218 14.75558472 C-64.72952042 15.60943184 -68.16797849 16.21690688 -72 16 C-64.62294438 12.18713979 -58.31770004 10.60391905 -50 11 C-50 10.34 -50 9.68 -50 9 C-47.94921875 8.77213542 -45.8984375 8.54427083 -43.84765625 8.31640625 C-41.98859771 8.18113386 -41.98859771 8.18113386 -41 7 C-37.77437436 6.45783976 -34.53838585 6.03401348 -31.296875 5.59765625 C-28.10306471 5.13929214 -28.10306471 5.13929214 -25.67578125 4.03515625 C-21.70514217 2.4990696 -17.6348197 2.00156105 -13.4375 1.375 C-12.58736328 1.2409375 -11.73722656 1.106875 -10.86132812 0.96875 C-7.15690197 0.39928527 -3.76578349 0 0 0 Z " fill="#414141" transform="translate(395,124)"/>
<path d="M0 0 C0 6.6 0 13.2 0 20 C-4.455 21.485 -4.455 21.485 -9 23 C-16.09652636 27.8861329 -19.02438227 33.04943688 -20.68359375 41.46875 C-21.18367097 44.64165372 -21.62529682 47.81009269 -22 51 C-22.33 51 -22.66 51 -23 51 C-23.53179999 41.74274085 -22.38555177 33.03161148 -16.51953125 25.53515625 C-12.22662863 21.19811067 -7.94388061 19.18877612 -2 18 C-2 12.72 -2 7.44 -2 2 C-3.464375 2.309375 -4.92875 2.61875 -6.4375 2.9375 C-11.28349169 3.91222871 -16.08155789 4.52402173 -21 5 C-17.46132568 2.96016267 -13.91801709 2.20375119 -9.9375 1.375 C-8.09478516 0.98441406 -8.09478516 0.98441406 -6.21484375 0.5859375 C-3 0 -3 0 0 0 Z " fill="#3F3F3F" transform="translate(436,28)"/>
<path d="M0 0 C-7.74137688 7.74137688 -24.68645578 7.52746663 -34.8125 7.5625 C-44.4241229 7.48885285 -53.07004206 6.69743175 -62 3 C-58.37217449 1.70801497 -56.13770978 2.36054645 -52.5 3.4375 C-38.68861593 6.83195516 -21.8703012 6.56528845 -8.5625 1.375 C-5.33929462 0.13095582 -3.38739282 -0.31756808 0 0 Z " fill="#747474" transform="translate(361,393)"/>
<path d="M0 0 C0.33 0 0.66 0 1 0 C1 15.51 1 31.02 1 47 C-3.35010863 45.54996379 -6.99108518 44.09990776 -11 42 C-6.82412255 40.60804085 -4.86525224 42.17676781 -1 44 C-1.00523682 42.77369873 -1.01047363 41.54739746 -1.01586914 40.28393555 C-1.03395561 35.7385328 -1.0454454 31.19313324 -1.05493164 26.64770508 C-1.0599635 24.67960068 -1.06678958 22.71150003 -1.07543945 20.7434082 C-1.08755517 17.91616899 -1.09323976 15.08897916 -1.09765625 12.26171875 C-1.10281754 11.38037766 -1.10797882 10.49903656 -1.11329651 9.59098816 C-1.11337204 8.77036392 -1.11344757 7.94973969 -1.11352539 7.10424805 C-1.115746 6.38254929 -1.11796661 5.66085052 -1.12025452 4.9172821 C-1 3 -1 3 0 0 Z " fill="#4D4D4D" transform="translate(394,260)"/>
<path d="M0 0 C0.66 0.33 1.32 0.66 2 1 C-12.98919649 17.5070898 -12.98919649 17.5070898 -16 20 C-16.66 20 -17.32 20 -18 20 C-18 20.99 -18 21.98 -18 23 C-18.66 23 -19.32 23 -20 23 C-17.27787506 13.32133355 -7.23059647 6.3807072 0 0 Z " fill="#959595" transform="translate(302,317)"/>
<path d="M0 0 C0.82540283 -0.00064453 1.65080566 -0.00128906 2.5012207 -0.00195312 C9.05806058 0.05433425 15.34106219 0.7547634 21.75 2.1875 C21.75 2.5175 21.75 2.8475 21.75 3.1875 C7.89 3.1875 -5.97 3.1875 -20.25 3.1875 C-14.47520337 -0.66236442 -6.77235224 -0.00551663 0 0 Z " fill="#696969" transform="translate(361.25,297.8125)"/>
<path d="M0 0 C1.134375 0.020625 2.26875 0.04125 3.4375 0.0625 C0.71867233 2.78132767 -1.61855025 2.94622789 -5.36328125 3.7890625 C-6.37336494 4.01787613 -6.37336494 4.01787613 -7.40385437 4.25131226 C-8.82955721 4.57246118 -10.25608523 4.88996528 -11.68334961 5.20410156 C-13.85822352 5.68379972 -16.02973059 6.17689781 -18.20117188 6.671875 C-29.81797388 9.27381985 -29.81797388 9.27381985 -34.5625 9.0625 C-27.18544438 5.24963979 -20.88020004 3.66641905 -12.5625 4.0625 C-12.5625 3.4025 -12.5625 2.7425 -12.5625 2.0625 C-10.51171875 1.83463542 -8.4609375 1.60677083 -6.41015625 1.37890625 C-3.20046765 0.82925556 -4.00105232 0.0701939 0 0 Z " fill="#696969" transform="translate(357.5625,130.9375)"/>
<path d="M0 0 C0.88940182 3.02396618 1.08542146 5.62879806 0.9921875 8.7734375 C0.97542969 9.6809375 0.95867187 10.5884375 0.94140625 11.5234375 C0.89731263 13.4168696 0.84529269 15.31013452 0.78515625 17.203125 C0.69940205 22.70698534 1.16863035 26.12633094 4 31 C3.67 31.66 3.34 32.32 3 33 C-2.64745464 24.15232106 -3.74123888 16.35158528 -2 6 C-0.9375 2.3125 -0.9375 2.3125 0 0 Z " fill="#747474" transform="translate(277,348)"/>
<path d="M0 0 C0.66 0.33 1.32 0.66 2 1 C-9.57446809 14.14893617 -9.57446809 14.14893617 -17 19 C-13.40714907 11.13409821 -6.53396433 5.4308275 0 0 Z " fill="#8D8D8D" transform="translate(65,383)"/>
<path d="M0 0 C0.82871273 2.85240677 1.0761083 5.23470378 0.921875 8.1953125 C0.37083692 20.28896443 0.37083692 20.28896443 5.00390625 31.28515625 C5.33261719 31.85105469 5.66132812 32.41695313 6 33 C5.67 33.66 5.34 34.32 5 35 C-0.85611683 26.76978175 -3.88593141 18.60979532 -2.25 8.4375 C-1.64767521 5.53012458 -0.93934585 2.81803756 0 0 Z " fill="#5C5C5C" transform="translate(41,413)"/>
<path d="M0 0 C-2.69527268 1.44498979 -5.17079975 2.40241924 -8.15234375 3.0703125 C-9.31733398 3.33134766 -9.31733398 3.33134766 -10.50585938 3.59765625 C-11.70952148 3.85869141 -11.70952148 3.85869141 -12.9375 4.125 C-13.73607422 4.30675781 -14.53464844 4.48851562 -15.35742188 4.67578125 C-19.30010728 5.54467464 -22.93527308 6.24634709 -27 6 C-23.31675698 2.52138159 -19.44501592 2.07028601 -14.625 1.3125 C-13.8825 1.18294922 -13.14 1.05339844 -12.375 0.91992188 C-8.2052703 0.22373909 -4.24272293 -0.1414241 0 0 Z " fill="#616161" transform="translate(265,153)"/>
<path d="M0 0 C-3.37760373 2.25173582 -5.98222224 2.8366795 -9.9375 3.6875 C-11.16339844 3.95949219 -12.38929688 4.23148438 -13.65234375 4.51171875 C-16.62455864 4.94523901 -18.23924385 5.03095906 -21 4 C-13.8036691 0.93540281 -7.83534611 -0.61187085 0 0 Z " fill="#555555" transform="translate(220,163)"/>
<path d="M0 0 C1.134375 0.020625 2.26875 0.04125 3.4375 0.0625 C-0.14625776 3.64625776 -5.69750141 3.98637761 -10.625 4.1875 C-11.264375 4.14625 -11.90375 4.105 -12.5625 4.0625 C-12.5625 3.4025 -12.5625 2.7425 -12.5625 2.0625 C-10.51171875 1.83463542 -8.4609375 1.60677083 -6.41015625 1.37890625 C-3.20046765 0.82925556 -4.00105232 0.0701939 0 0 Z " fill="#808080" transform="translate(357.5625,130.9375)"/>
<path d="M0 0 C1.4540625 0.0309375 1.4540625 0.0309375 2.9375 0.0625 C2.6075 0.7225 2.2775 1.3825 1.9375 2.0625 C-0.8984375 2.94921875 -0.8984375 2.94921875 -4.4375 3.75 C-6.18160156 4.15798828 -6.18160156 4.15798828 -7.9609375 4.57421875 C-11.0625 5.0625 -11.0625 5.0625 -14.0625 4.0625 C-13.35222656 3.85753906 -12.64195312 3.65257812 -11.91015625 3.44140625 C-10.99105469 3.17199219 -10.07195312 2.90257812 -9.125 2.625 C-7.75021484 2.22474609 -7.75021484 2.22474609 -6.34765625 1.81640625 C-0.89748647 0.01831605 -0.89748647 0.01831605 0 0 Z " fill="#5D5D5D" transform="translate(375.0625,126.9375)"/>
<path d="M0 0 C0.66 0.33 1.32 0.66 2 1 C1.07038578 2.15224028 0.1309875 3.29659176 -0.8125 4.4375 C-1.59560547 5.39462891 -1.59560547 5.39462891 -2.39453125 6.37109375 C-4 8 -4 8 -7 9 C-5.64978174 4.58110387 -3.73884332 2.65654657 0 0 Z " fill="#848484" transform="translate(167,89)"/>
</svg>
