<?xml version="1.0" encoding="UTF-8"?>
<svg version="1.1" xmlns="http://www.w3.org/2000/svg" width="500" height="500">
<path d="M0 0 C1.32 0 2.64 0 4 0 C4.38478516 1.05960937 4.38478516 1.05960937 4.77734375 2.140625 C23.22012911 51.56977364 51.18348861 100.09585832 87 139 C89.360503 141.64354974 91.68089059 144.32014024 94 147 C94.83402344 147.94359375 95.66804687 148.8871875 96.52734375 149.859375 C103.45428026 157.77833853 109.43785786 166.07360174 115 175 C115.35690918 175.56799316 115.71381836 176.13598633 116.08154297 176.72119141 C136.45764172 209.52010658 142.46733276 247.73246608 133.875 285.25 C127.00717375 313.68488975 112.80754735 339.46172465 96 363.1875 C95.46028564 363.96013184 94.92057129 364.73276367 94.36450195 365.52880859 C93.85234131 366.23473145 93.34018066 366.9406543 92.8125 367.66796875 C92.36519531 368.28953857 91.91789063 368.9111084 91.45703125 369.55151367 C89.70998277 371.28831639 88.40105066 371.61599899 86 372 C87.5155609 367.13425184 89.16512945 362.4944345 91.3125 357.87109375 C102.86248067 332.71307456 111.9221704 307.25735484 117 280 C117.24621094 278.72769531 117.49242187 277.45539063 117.74609375 276.14453125 C123.1283815 243.29401638 117.3368663 209.54713725 98.0625 182.1875 C94.0084522 176.84280807 89.60389569 171.87424535 85 167 C84.32582031 166.26136719 83.65164063 165.52273437 82.95703125 164.76171875 C70.79153974 151.91149038 54.68455119 141.95571072 39 134 C38.34 134 37.68 134 37 134 C37 133.34 37 132.68 37 132 C36.46632813 131.84144531 35.93265625 131.68289062 35.3828125 131.51953125 C30.94707627 130.13048582 26.82442084 128.50060195 22.6796875 126.38671875 C21.79780762 125.93901123 20.91592773 125.49130371 20.00732422 125.0300293 C19.34490723 124.69011963 18.68249023 124.35020996 18 124 C18.00113916 124.59410042 18.00227832 125.18820083 18.003452 125.80030429 C18.07070225 161.07371922 18.12211815 196.34712305 18.15319599 231.62058883 C18.15694775 235.86343303 18.16083075 240.10627709 18.16479492 244.34912109 C18.16558185 245.1937341 18.16636878 246.03834711 18.16717956 246.90855445 C18.18020523 260.55371843 18.2038433 274.19884418 18.23145839 287.84398554 C18.25959183 301.86300392 18.27619298 315.88200238 18.28226548 329.90104783 C18.28636553 338.53961528 18.29927746 347.17807465 18.3237494 355.8166088 C18.33970479 361.75414963 18.34437839 367.69163524 18.34050413 373.62919591 C18.33859767 377.04614098 18.3430362 380.46274811 18.35761642 383.87968445 C18.42845947 401.34918927 18.19616553 418.5799571 12.3125 435.25 C12.05686279 435.98686035 11.80122559 436.7237207 11.5378418 437.48291016 C6.87706376 450.33860015 -0.33054243 460.44200591 -10 470 C-11.09441406 471.10988281 -11.09441406 471.10988281 -12.2109375 472.2421875 C-29.86322127 489.1070088 -54.96526382 495.54067444 -78.72509766 495.27905273 C-93.92166304 494.92778167 -109.37676488 491.63363761 -121.453125 481.66796875 C-128.47584748 474.09548769 -129.35799204 465.706414 -129.28515625 455.76953125 C-128.83472837 449.81524493 -127.11400612 444.55386973 -125 439 C-124.72285156 438.23429687 -124.44570312 437.46859375 -124.16015625 436.6796875 C-113.79162602 410.78225255 -91.79643835 392.01212364 -67.3125 380.0625 C-48.64212934 372.23574401 -26.89282471 370.16394223 -7.53125 376.5546875 C-6.80196289 376.78921631 -6.07267578 377.02374512 -5.32128906 377.26538086 C-3.54552429 377.83741 -1.77246446 378.41782512 0 379 C0.03024686 350.10278005 0.04943065 321.20555861 0.06108999 292.30832529 C0.06249366 288.8904498 0.06401217 285.47257438 0.06554031 282.05469894 C0.08804696 229.68549345 0.05485736 177.31762391 -0.2578125 124.94921875 C-0.26387646 123.92794797 -0.26994042 122.90667719 -0.27618814 121.85445881 C-0.39265799 102.31671097 -0.52125283 82.77905963 -0.66940379 63.24152559 C-0.72374264 56.07234661 -0.77530293 48.90315123 -0.82495522 41.73393828 C-0.8592702 36.83046707 -0.89832279 31.92706527 -0.94131535 27.02366281 C-0.96624186 24.07032239 -0.98706101 21.11696379 -1.00671017 18.16358399 C-1.021304 16.16577935 -1.04105374 14.16801445 -1.06095791 12.17025566 C-1.06799771 10.99444498 -1.07503752 9.8186343 -1.08229065 8.60719299 C-1.09058679 7.58918389 -1.09888292 6.57117479 -1.10743046 5.52231693 C-1 3 -1 3 0 0 Z " fill="#F4F4F4" transform="translate(232,0)"/>
<path d="M0 0 C1.32 0 2.64 0 4 0 C4.99 3.63 5.98 7.26 7 11 C6.01 10.01 5.02 9.02 4 8 C2.78914624 15.59408845 2.84669417 23.14499708 2.84178162 30.81884766 C2.83721103 32.33130555 2.83221028 33.8437622 2.82681805 35.35621738 C2.81328412 39.4997143 2.80583239 43.64320304 2.79939139 47.78671622 C2.79136652 52.25970141 2.77767596 56.7326697 2.76467896 61.2056427 C2.74294576 68.95120717 2.72478976 76.69677337 2.70907402 84.44235229 C2.68634661 95.64111366 2.65820778 106.8398563 2.62875474 118.03860176 C2.58111402 136.20850618 2.53784031 154.37841826 2.49731445 172.54833984 C2.45794161 190.19710893 2.4165111 207.84587121 2.37231445 225.49462891 C2.36959018 226.5827805 2.36686591 227.6709321 2.36405908 228.79205799 C2.35037931 234.25107901 2.33665909 239.71009992 2.32291877 245.16912079 C2.20900929 290.44606633 2.10218773 335.72302659 2 381 C0.57386092 380.69044604 -0.85183468 380.37884855 -2.27734375 380.06640625 C-3.07132568 379.89310791 -3.86530762 379.71980957 -4.68334961 379.54125977 C-6.66140171 379.07910975 -8.61590812 378.51806249 -10.5625 377.9375 C-19.420411 375.52170609 -28.3969825 375.88084665 -37.5 375.9375 C-38.90885258 375.94252467 -40.31770689 375.94708587 -41.7265625 375.95117188 C-45.15108638 375.9628997 -48.57552047 375.97931309 -52 376 C-52 375.67 -52 375.34 -52 375 C-43.65108274 373.27607681 -35.62037842 372.7909616 -27.125 373.0625 C-26.26567871 373.07595459 -25.40635742 373.08940918 -24.52099609 373.10327148 C-18.54471142 373.37371413 -13.28296886 374.71238257 -7.63232422 376.54858398 C-6.89574081 376.78355339 -6.15915741 377.0185228 -5.4002533 377.26061249 C-3.59875009 377.83598487 -1.79917215 378.4173794 0 379 C0.03024686 350.10278005 0.04943065 321.20555861 0.06108999 292.30832529 C0.06249366 288.8904498 0.06401217 285.47257438 0.06554031 282.05469894 C0.08804696 229.68549345 0.05485736 177.31762391 -0.2578125 124.94921875 C-0.26387646 123.92794797 -0.26994042 122.90667719 -0.27618814 121.85445881 C-0.39265799 102.31671097 -0.52125283 82.77905963 -0.66940379 63.24152559 C-0.72374264 56.07234661 -0.77530293 48.90315123 -0.82495522 41.73393828 C-0.8592702 36.83046707 -0.89832279 31.92706527 -0.94131535 27.02366281 C-0.96624186 24.07032239 -0.98706101 21.11696379 -1.00671017 18.16358399 C-1.021304 16.16577935 -1.04105374 14.16801445 -1.06095791 12.17025566 C-1.06799771 10.99444498 -1.07503752 9.8186343 -1.08229065 8.60719299 C-1.09058679 7.58918389 -1.09888292 6.57117479 -1.10743046 5.52231693 C-1 3 -1 3 0 0 Z " fill="#363636" transform="translate(232,0)"/>
<path d="M0 0 C0.33 0 0.66 0 1 0 C1 60.72 1 121.44 1 184 C-8 182 -8 182 -11.5625 180.9375 C-20.420411 178.52170609 -29.3969825 178.88084665 -38.5 178.9375 C-39.90885258 178.94252467 -41.31770689 178.94708587 -42.7265625 178.95117188 C-46.15108638 178.9628997 -49.57552047 178.97931309 -53 179 C-53 178.67 -53 178.34 -53 178 C-44.65108274 176.27607681 -36.62037842 175.7909616 -28.125 176.0625 C-27.26567871 176.07595459 -26.40635742 176.08940918 -25.52099609 176.10327148 C-16.40584167 176.51575626 -10.37603677 179.06998851 -1 182 C-0.67 121.94 -0.34 61.88 0 0 Z " fill="#676767" transform="translate(233,197)"/>
<path d="M0 0 C1.5020887 4.5062661 -0.39233392 7.46929557 -2.125 11.75 C-2.47755859 12.62527344 -2.83011719 13.50054687 -3.19335938 14.40234375 C-9.61786765 29.76482729 -18.32515782 44.4589207 -28 58 C-28.44649902 58.64001953 -28.89299805 59.28003906 -29.35302734 59.93945312 C-30.82757801 62.051687 -32.31749977 64.15220079 -33.8125 66.25 C-34.28123535 66.91966797 -34.7499707 67.58933594 -35.23291016 68.27929688 C-36.41438469 69.90932978 -37.70007346 71.46276862 -39 73 C-39.99 73 -40.98 73 -42 73 C-40.1668733 67.00067626 -37.92678249 61.55079437 -35 56 C-33.78613064 59.64160808 -34.3325305 60.33165469 -35.9375 63.6875 C-36.31777344 64.49574219 -36.69804687 65.30398438 -37.08984375 66.13671875 C-37.39019531 66.75160156 -37.69054687 67.36648438 -38 68 C-22.21165417 47.23455879 -9.02455762 24.54932107 0 0 Z " fill="#484848" transform="translate(360,299)"/>
<path d="M0 0 C10.00418026 17.74800179 5.39395413 46.97511348 1 66 C0.67 66 0.34 66 0 66 C0.0707373 65.38970947 0.14147461 64.77941895 0.21435547 64.15063477 C1.19143075 54.40306389 1.1516571 44.67540731 1.13037109 34.88793945 C1.12495517 31.9128727 1.13037273 28.93795313 1.13671875 25.96289062 C1.13605889 24.067708 1.13477965 22.17252547 1.1328125 20.27734375 C1.13483673 19.38989975 1.13686096 18.50245575 1.13894653 17.58811951 C1.13579437 16.76618607 1.13264221 15.94425262 1.12939453 15.09741211 C1.12859894 14.37637802 1.12780334 13.65534393 1.12698364 12.91246033 C1.06609949 10.77716405 1.06609949 10.77716405 0 8 C-0.12781786 5.32605036 -0.04391871 2.67904143 0 0 Z " fill="#717171" transform="translate(365,219)"/>
<path d="M0 0 C0.66 0.33 1.32 0.66 2 1 C-1.64694669 6.34712468 -5.31376948 11.67988712 -9 17 C-9.64710938 17.9384375 -10.29421875 18.876875 -10.9609375 19.84375 C-12.22934202 21.62080405 -13.60228947 23.32274737 -15 25 C-15.99 25 -16.98 25 -18 25 C-16.1668733 19.00067626 -13.92678249 13.55079437 -11 8 C-9.78613064 11.64160808 -10.3325305 12.33165469 -11.9375 15.6875 C-12.31777344 16.49574219 -12.69804687 17.30398438 -13.08984375 18.13671875 C-13.39019531 18.75160156 -13.69054687 19.36648438 -14 20 C-11.85179669 17.04338097 -9.70684386 14.08441906 -7.5625 11.125 C-6.95083984 10.28324219 -6.33917969 9.44148438 -5.70898438 8.57421875 C-5.12568359 7.76855469 -4.54238281 6.96289062 -3.94140625 6.1328125 C-3.40201416 5.38918457 -2.86262207 4.64555664 -2.30688477 3.87939453 C-0.95785485 2.0352689 -0.95785485 2.0352689 0 0 Z " fill="#242424" transform="translate(336,347)"/>
<path d="M0 0 C0.33 0 0.66 0 1 0 C1.05447822 2.52113092 1.09389852 5.0410585 1.125 7.5625 C1.14175781 8.26697266 1.15851563 8.97144531 1.17578125 9.69726562 C1.22009542 14.50535347 0.44826659 18.37359283 -1 23 C-1.76564608 26.30059287 -2.44355688 29.61861962 -3.125 32.9375 C-3.30675781 33.81212891 -3.48851562 34.68675781 -3.67578125 35.58789062 C-4.11950693 37.7247801 -4.56007868 39.86232408 -5 42 C-5.66 42 -6.32 42 -7 42 C-6.14491983 33.98362336 -4.46218867 26.1727583 -2.81640625 18.28710938 C-1.56708235 12.19203508 -0.57337954 6.1964084 0 0 Z " fill="#646464" transform="translate(351,265)"/>
<path d="M0 0 C0.99 0.33 1.98 0.66 3 1 C3.94921875 3.06640625 3.94921875 3.06640625 4.6875 5.5625 C4.93886719 6.38878906 5.19023437 7.21507812 5.44921875 8.06640625 C5.63097656 8.70449219 5.81273437 9.34257812 6 10 C5.01 9.01 4.02 8.02 3 7 C2.11136591 13.33245134 1.70617622 19.61343405 1.4375 26 C1.39431641 26.96550781 1.35113281 27.93101563 1.30664062 28.92578125 C1.20158287 31.28374425 1.09943086 33.64179416 1 36 C0.67 36 0.34 36 0 36 C0 24.12 0 12.24 0 0 Z " fill="#6B6B6B" transform="translate(233,1)"/>
<path d="M0 0 C0.66 0.33 1.32 0.66 2 1 C-10.76595745 15.14893617 -10.76595745 15.14893617 -18 21 C-18 15.49024931 -12.69527879 11.76941247 -9 8 C-6.39747571 5.58398995 -3.72631653 3.27424874 -1 1 C-0.67 0.67 -0.34 0.34 0 0 Z " fill="#8B8B8B" transform="translate(141,394)"/>
<path d="M0 0 C0.98974049 3.37244907 0.77119606 5.82707234 0.26171875 9.30078125 C-0.09846388 13.0155006 -0.11881885 16.7073826 -0.125 20.4375 C-0.12943115 21.1603418 -0.1338623 21.88318359 -0.13842773 22.62792969 C-0.44302382 26.10418115 -0.44302382 26.10418115 1 29 C1.04063832 30.66617115 1.042721 32.33388095 1 34 C-4.45966313 27.59083024 -3.51032843 18.99514534 -3 11 C-2.24725591 7.23627957 -1.24431707 3.62925811 0 0 Z " fill="#6D6D6D" transform="translate(106,441)"/>
<path d="M0 0 C1.83276671 6.11086022 -1.34878817 10.9432812 -4.125 16.375 C-4.66382813 17.43460937 -5.20265625 18.49421875 -5.7578125 19.5859375 C-6.16773438 20.38257813 -6.57765625 21.17921875 -7 22 C-8.1817019 18.4548943 -7.7911988 17.85982494 -6.34765625 14.55078125 C-5.98349609 13.70322266 -5.61933594 12.85566406 -5.24414062 11.98242188 C-4.65922852 10.66081055 -4.65922852 10.66081055 -4.0625 9.3125 C-3.67642578 8.41982422 -3.29035156 7.52714844 -2.89257812 6.60742188 C-1.93688877 4.40107732 -0.97244531 2.19899853 0 0 Z " fill="#464646" transform="translate(334,333)"/>
<path d="M0 0 C0.33 0.66 0.66 1.32 1 2 C1.66 2 2.32 2 3 2 C1.5140084 6.59306496 -0.85014682 9.43569245 -4 13 C-4.33 12.34 -4.66 11.68 -5 11 C-4.00390625 8.3984375 -4.00390625 8.3984375 -2.5625 5.375 C-2.08941406 4.37210937 -1.61632812 3.36921875 -1.12890625 2.3359375 C-0.75636719 1.56507813 -0.38382812 0.79421875 0 0 Z " fill="#C8C8C8" transform="translate(326,355)"/>
<path d="M0 0 C1.29180669 3.65572506 0.72816102 6.2815796 -0.1875 10 C-0.42855469 11.03125 -0.66960937 12.0625 -0.91796875 13.125 C-2.10407713 16.27653708 -3.4718643 17.82255807 -6 20 C-4.22089072 13.24947898 -2.29561809 6.59379663 0 0 Z " fill="#505050" transform="translate(341,313)"/>
<path d="M0 0 C0.99 0.33 1.98 0.66 3 1 C4.1875 4.5625 4.1875 4.5625 5 8 C4.01 7.01 3.02 6.02 2 5 C1.67 7.64 1.34 10.28 1 13 C0.67 13 0.34 13 0 13 C0 8.71 0 4.42 0 0 Z " fill="#AAAAAA" transform="translate(234,3)"/>
</svg>
